<svg xmlns="http://www.w3.org/2000/svg" viewBox="0 0 1800 1200" width="1800" height="1200" preserveAspectRatio="xMidYMid slice" role="img"><defs><clipPath id="frame"><rect width="1800" height="1134"/></clipPath></defs><rect width="1800" height="1200" fill="#16181A"/><g clip-path="url(#frame)"><rect x="0" y="340" width="1800" height="794" fill="#1E2124"/>
<circle cx="1332" cy="635" r="340" fill="none" stroke="#4A5054" stroke-width="6"/>
<path d="M1672.2 635.0 L1711.9 635.0" stroke="#4A5054" stroke-width="5"/>
<path d="M1658.4 730.9 L1696.5 742.1" stroke="#4A5054" stroke-width="5"/>
<path d="M1618.2 819.0 L1651.6 840.4" stroke="#4A5054" stroke-width="5"/>
<path d="M1554.8 892.1 L1580.8 922.1" stroke="#4A5054" stroke-width="5"/>
<path d="M1473.3 944.5 L1489.8 980.6" stroke="#4A5054" stroke-width="5"/>
<path d="M1380.4 971.8 L1386.1 1011.1" stroke="#4A5054" stroke-width="5"/>
<path d="M1283.6 971.8 L1277.9 1011.1" stroke="#4A5054" stroke-width="5"/>
<path d="M1190.7 944.5 L1174.2 980.6" stroke="#4A5054" stroke-width="5"/>
<path d="M1109.2 892.1 L1083.2 922.1" stroke="#4A5054" stroke-width="5"/>
<path d="M1045.8 819.0 L1012.4 840.4" stroke="#4A5054" stroke-width="5"/>
<path d="M1005.6 730.9 L967.5 742.1" stroke="#4A5054" stroke-width="5"/>
<path d="M991.8 635.0 L952.1 635.0" stroke="#4A5054" stroke-width="5"/>
<path d="M1005.6 539.2 L967.5 528.0" stroke="#4A5054" stroke-width="5"/>
<path d="M1045.8 451.1 L1012.4 429.7" stroke="#4A5054" stroke-width="5"/>
<path d="M1109.2 377.9 L1083.2 347.9" stroke="#4A5054" stroke-width="5"/>
<path d="M1190.7 325.6 L1174.2 289.5" stroke="#4A5054" stroke-width="5"/>
<path d="M1283.6 298.3 L1277.9 259.0" stroke="#4A5054" stroke-width="5"/>
<path d="M1380.4 298.3 L1386.1 259.0" stroke="#4A5054" stroke-width="5"/>
<path d="M1473.3 325.6 L1489.8 289.5" stroke="#4A5054" stroke-width="5"/>
<path d="M1554.8 377.9 L1580.8 347.9" stroke="#4A5054" stroke-width="5"/>
<path d="M1618.2 451.1 L1651.6 429.7" stroke="#4A5054" stroke-width="5"/>
<path d="M1658.4 539.2 L1696.5 528.0" stroke="#4A5054" stroke-width="5"/>
<rect x="36" y="244" width="73" height="102" rx="51" fill="none" stroke="#C9C4B8" stroke-width="4"/>
<rect x="130" y="244" width="73" height="102" rx="51" fill="none" stroke="#C9C4B8" stroke-width="4"/>
<rect x="223" y="244" width="73" height="102" rx="51" fill="none" stroke="#C9C4B8" stroke-width="4"/>
<rect x="317" y="244" width="73" height="102" rx="51" fill="none" stroke="#C9C4B8" stroke-width="4"/>
<rect x="410" y="244" width="73" height="102" rx="51" fill="none" stroke="#FF5A1F" stroke-width="4"/>
<rect x="504" y="244" width="73" height="102" rx="51" fill="none" stroke="#C9C4B8" stroke-width="4"/>
<rect x="598" y="244" width="73" height="102" rx="51" fill="none" stroke="#C9C4B8" stroke-width="4"/>
<rect x="691" y="244" width="73" height="102" rx="51" fill="none" stroke="#C9C4B8" stroke-width="4"/>
<rect x="785" y="244" width="73" height="102" rx="51" fill="none" stroke="#C9C4B8" stroke-width="4"/>
<rect x="878" y="244" width="73" height="102" rx="51" fill="none" stroke="#C9C4B8" stroke-width="4"/>
<rect x="972" y="244" width="73" height="102" rx="51" fill="none" stroke="#C9C4B8" stroke-width="4"/>
<rect x="1066" y="244" width="73" height="102" rx="51" fill="none" stroke="#C9C4B8" stroke-width="4"/></g><g opacity="0.5"><path d="M75 0 L75 1134" stroke="#2B2F33" stroke-width="1"/><path d="M150 0 L150 1134" stroke="#2B2F33" stroke-width="1"/><path d="M225 0 L225 1134" stroke="#2B2F33" stroke-width="1"/><path d="M300 0 L300 1134" stroke="#2B2F33" stroke-width="1"/><path d="M375 0 L375 1134" stroke="#2B2F33" stroke-width="1"/><path d="M450 0 L450 1134" stroke="#2B2F33" stroke-width="1"/><path d="M525 0 L525 1134" stroke="#2B2F33" stroke-width="1"/><path d="M600 0 L600 1134" stroke="#2B2F33" stroke-width="1"/><path d="M675 0 L675 1134" stroke="#2B2F33" stroke-width="1"/><path d="M750 0 L750 1134" stroke="#2B2F33" stroke-width="1"/><path d="M825 0 L825 1134" stroke="#2B2F33" stroke-width="1"/><path d="M900 0 L900 1134" stroke="#2B2F33" stroke-width="1"/><path d="M975 0 L975 1134" stroke="#2B2F33" stroke-width="1"/><path d="M1050 0 L1050 1134" stroke="#2B2F33" stroke-width="1"/><path d="M1125 0 L1125 1134" stroke="#2B2F33" stroke-width="1"/><path d="M1200 0 L1200 1134" stroke="#2B2F33" stroke-width="1"/><path d="M1275 0 L1275 1134" stroke="#2B2F33" stroke-width="1"/><path d="M1350 0 L1350 1134" stroke="#2B2F33" stroke-width="1"/><path d="M1425 0 L1425 1134" stroke="#2B2F33" stroke-width="1"/><path d="M1500 0 L1500 1134" stroke="#2B2F33" stroke-width="1"/><path d="M1575 0 L1575 1134" stroke="#2B2F33" stroke-width="1"/><path d="M1650 0 L1650 1134" stroke="#2B2F33" stroke-width="1"/><path d="M1725 0 L1725 1134" stroke="#2B2F33" stroke-width="1"/><path d="M0 75 L1800 75" stroke="#2B2F33" stroke-width="1"/><path d="M0 150 L1800 150" stroke="#2B2F33" stroke-width="1"/><path d="M0 225 L1800 225" stroke="#2B2F33" stroke-width="1"/><path d="M0 300 L1800 300" stroke="#2B2F33" stroke-width="1"/><path d="M0 375 L1800 375" stroke="#2B2F33" stroke-width="1"/><path d="M0 450 L1800 450" stroke="#2B2F33" stroke-width="1"/><path d="M0 525 L1800 525" stroke="#2B2F33" stroke-width="1"/><path d="M0 600 L1800 600" stroke="#2B2F33" stroke-width="1"/><path d="M0 675 L1800 675" stroke="#2B2F33" stroke-width="1"/><path d="M0 750 L1800 750" stroke="#2B2F33" stroke-width="1"/><path d="M0 825 L1800 825" stroke="#2B2F33" stroke-width="1"/><path d="M0 900 L1800 900" stroke="#2B2F33" stroke-width="1"/><path d="M0 975 L1800 975" stroke="#2B2F33" stroke-width="1"/><path d="M0 1050 L1800 1050" stroke="#2B2F33" stroke-width="1"/><path d="M0 1125 L1800 1125" stroke="#2B2F33" stroke-width="1"/></g><path d="M21 46 L21 21 L46 21" stroke="#C9C4B8" stroke-width="2.5" fill="none" opacity="0.8"/><path d="M1779 46 L1779 21 L1754 21" stroke="#C9C4B8" stroke-width="2.5" fill="none" opacity="0.8"/><path d="M21 1088 L21 1113 L46 1113" stroke="#C9C4B8" stroke-width="2.5" fill="none" opacity="0.8"/><path d="M1779 1088 L1779 1113 L1754 1113" stroke="#C9C4B8" stroke-width="2.5" fill="none" opacity="0.8"/><rect x="0" y="1134" width="1800" height="66" fill="#1E2124"/><path d="M0 1134.5 L1800 1134.5" stroke="#4A5054" stroke-width="1"/><rect x="0" y="1134" width="7" height="66" fill="#FF5A1F"/><text x="46" y="1176" font-family="ui-monospace, 'Roboto Mono', 'DejaVu Sans Mono', 'Courier New', monospace" font-size="26" letter-spacing="3.6" fill="#C9C4B8">DRIVE CHAIN, 4200 KM ON MURRAM</text><text x="1754" y="1176" text-anchor="end" font-family="ui-monospace, 'Roboto Mono', 'DejaVu Sans Mono', 'Courier New', monospace" font-size="26" letter-spacing="3.6" fill="#8A8D8F">FEATURE-CHAIN / 1800x1200 / PLATE</text></svg>