<svg xmlns="http://www.w3.org/2000/svg" viewBox="0 0 1800 1200" width="1800" height="1200" preserveAspectRatio="xMidYMid slice" role="img"><defs><clipPath id="frame"><rect width="1800" height="1134"/></clipPath></defs><rect width="1800" height="1200" fill="#16181A"/><g clip-path="url(#frame)"><path d="M0 0 L1800 0 L1800 386 L0 386 Z" fill="#16181A"/><path d="M0 386 L129 363 L257 338 L386 357 L514 353 L643 348 L771 370 L900 352 L1029 298 L1157 329 L1286 311 L1414 381 L1543 366 L1671 350 L1800 386 L0 386 Z" fill="#1E2124" opacity="0.85"/>
<rect x="0" y="386" width="1800" height="748" fill="#1E2124"/>
<path d="M108 505 L1692 505 q108 67 22 142" stroke="#4A5054" stroke-width="3" fill="none" stroke-linecap="round"/>
<path d="M1602 648 L198 648 q-108 67 -22 142" stroke="#4A5054" stroke-width="4" fill="none" stroke-linecap="round"/>
<path d="M288 790 L1512 790 q108 67 22 142" stroke="#4A5054" stroke-width="5" fill="none" stroke-linecap="round"/>
<path d="M1422 932 L378 932 q-108 67 -22 142" stroke="#4A5054" stroke-width="6" fill="none" stroke-linecap="round"/>
<path d="M468 1074 L1332 1074 q108 67 22 142" stroke="#4A5054" stroke-width="7" fill="none" stroke-linecap="round"/>
<path d="M936 116 L900 355" stroke="#4A5054" stroke-width="1.5" opacity="0.5" fill="none"/>
<path d="M1017 116 L981 355" stroke="#4A5054" stroke-width="1.5" opacity="0.5" fill="none"/>
<path d="M1098 116 L1062 355" stroke="#4A5054" stroke-width="1.5" opacity="0.5" fill="none"/>
<path d="M1179 116 L1143 355" stroke="#4A5054" stroke-width="1.5" opacity="0.5" fill="none"/>
<path d="M1260 116 L1224 355" stroke="#4A5054" stroke-width="1.5" opacity="0.5" fill="none"/>
<path d="M1341 116 L1305 355" stroke="#4A5054" stroke-width="1.5" opacity="0.5" fill="none"/>
<path d="M1422 116 L1386 355" stroke="#4A5054" stroke-width="1.5" opacity="0.5" fill="none"/>
<path d="M1503 116 L1467 355" stroke="#4A5054" stroke-width="1.5" opacity="0.5" fill="none"/>
<path d="M1584 116 L1548 355" stroke="#4A5054" stroke-width="1.5" opacity="0.5" fill="none"/>
<circle cx="396" cy="505" r="14" fill="#FF5A1F"/></g><g opacity="0.5"><path d="M75 0 L75 1134" stroke="#2B2F33" stroke-width="1"/><path d="M150 0 L150 1134" stroke="#2B2F33" stroke-width="1"/><path d="M225 0 L225 1134" stroke="#2B2F33" stroke-width="1"/><path d="M300 0 L300 1134" stroke="#2B2F33" stroke-width="1"/><path d="M375 0 L375 1134" stroke="#2B2F33" stroke-width="1"/><path d="M450 0 L450 1134" stroke="#2B2F33" stroke-width="1"/><path d="M525 0 L525 1134" stroke="#2B2F33" stroke-width="1"/><path d="M600 0 L600 1134" stroke="#2B2F33" stroke-width="1"/><path d="M675 0 L675 1134" stroke="#2B2F33" stroke-width="1"/><path d="M750 0 L750 1134" stroke="#2B2F33" stroke-width="1"/><path d="M825 0 L825 1134" stroke="#2B2F33" stroke-width="1"/><path d="M900 0 L900 1134" stroke="#2B2F33" stroke-width="1"/><path d="M975 0 L975 1134" stroke="#2B2F33" stroke-width="1"/><path d="M1050 0 L1050 1134" stroke="#2B2F33" stroke-width="1"/><path d="M1125 0 L1125 1134" stroke="#2B2F33" stroke-width="1"/><path d="M1200 0 L1200 1134" stroke="#2B2F33" stroke-width="1"/><path d="M1275 0 L1275 1134" stroke="#2B2F33" stroke-width="1"/><path d="M1350 0 L1350 1134" stroke="#2B2F33" stroke-width="1"/><path d="M1425 0 L1425 1134" stroke="#2B2F33" stroke-width="1"/><path d="M1500 0 L1500 1134" stroke="#2B2F33" stroke-width="1"/><path d="M1575 0 L1575 1134" stroke="#2B2F33" stroke-width="1"/><path d="M1650 0 L1650 1134" stroke="#2B2F33" stroke-width="1"/><path d="M1725 0 L1725 1134" stroke="#2B2F33" stroke-width="1"/><path d="M0 75 L1800 75" stroke="#2B2F33" stroke-width="1"/><path d="M0 150 L1800 150" stroke="#2B2F33" stroke-width="1"/><path d="M0 225 L1800 225" stroke="#2B2F33" stroke-width="1"/><path d="M0 300 L1800 300" stroke="#2B2F33" stroke-width="1"/><path d="M0 375 L1800 375" stroke="#2B2F33" stroke-width="1"/><path d="M0 450 L1800 450" stroke="#2B2F33" stroke-width="1"/><path d="M0 525 L1800 525" stroke="#2B2F33" stroke-width="1"/><path d="M0 600 L1800 600" stroke="#2B2F33" stroke-width="1"/><path d="M0 675 L1800 675" stroke="#2B2F33" stroke-width="1"/><path d="M0 750 L1800 750" stroke="#2B2F33" stroke-width="1"/><path d="M0 825 L1800 825" stroke="#2B2F33" stroke-width="1"/><path d="M0 900 L1800 900" stroke="#2B2F33" stroke-width="1"/><path d="M0 975 L1800 975" stroke="#2B2F33" stroke-width="1"/><path d="M0 1050 L1800 1050" stroke="#2B2F33" stroke-width="1"/><path d="M0 1125 L1800 1125" stroke="#2B2F33" stroke-width="1"/></g><path d="M21 46 L21 21 L46 21" stroke="#C9C4B8" stroke-width="2.5" fill="none" opacity="0.8"/><path d="M1779 46 L1779 21 L1754 21" stroke="#C9C4B8" stroke-width="2.5" fill="none" opacity="0.8"/><path d="M21 1088 L21 1113 L46 1113" stroke="#C9C4B8" stroke-width="2.5" fill="none" opacity="0.8"/><path d="M1779 1088 L1779 1113 L1754 1113" stroke="#C9C4B8" stroke-width="2.5" fill="none" opacity="0.8"/><rect x="0" y="1134" width="1800" height="66" fill="#1E2124"/><path d="M0 1134.5 L1800 1134.5" stroke="#4A5054" stroke-width="1"/><rect x="0" y="1134" width="7" height="66" fill="#FF5A1F"/><text x="46" y="1176" font-family="ui-monospace, 'Roboto Mono', 'DejaVu Sans Mono', 'Courier New', monospace" font-size="26" letter-spacing="3.6" fill="#C9C4B8">OLD NAIVASHA ROAD, WET SEASON</text><text x="1754" y="1176" text-anchor="end" font-family="ui-monospace, 'Roboto Mono', 'DejaVu Sans Mono', 'Courier New', monospace" font-size="26" letter-spacing="3.6" fill="#8A8D8F">FEATURE-ESCARPMENT / 1800x1200 / PLATE</text></svg>