<svg xmlns="http://www.w3.org/2000/svg" viewBox="0 0 2400 1350" width="2400" height="1350" preserveAspectRatio="xMidYMid slice" role="img"><defs><clipPath id="frame"><rect width="2400" height="1276"/></clipPath></defs><rect width="2400" height="1350" fill="#16181A"/><g clip-path="url(#frame)"><path d="M0 0 L2400 0 L2400 766 L0 766 Z" fill="#16181A"/><path d="M0 766 L171 720 L343 708 L514 664 L686 657 L857 738 L1029 679 L1200 751 L1371 765 L1543 687 L1714 753 L1886 669 L2057 674 L2229 683 L2400 679 L2400 766 L0 766 Z" fill="#1E2124" opacity="0.85"/>
<path d="M-360 1276 L1027 766 L1123 766 L2760 1276 Z" fill="#1E2124"/>
<path d="M-360 1276 L1027 766" stroke="#4A5054" stroke-width="2" fill="none"/>
<path d="M2760 1276 L1123 766" stroke="#4A5054" stroke-width="2" fill="none"/>
<path d="M1075.1 765.8 L1075.6 767.6" stroke="#C9C4B8" stroke-width="1.0" opacity="0.55" fill="none"/>
<path d="M1076.3 770.4 L1077.6 775.9" stroke="#C9C4B8" stroke-width="1.0" opacity="0.55" fill="none"/>
<path d="M1079.1 782.1 L1081.5 792.0" stroke="#C9C4B8" stroke-width="1.2" opacity="0.55" fill="none"/>
<path d="M1083.9 801.7 L1087.5 816.3" stroke="#C9C4B8" stroke-width="1.4" opacity="0.55" fill="none"/>
<path d="M1090.8 829.9 L1095.6 849.5" stroke="#C9C4B8" stroke-width="1.6" opacity="0.55" fill="none"/>
<path d="M1099.9 867.1 L1106.0 891.9" stroke="#C9C4B8" stroke-width="2.0" opacity="0.55" fill="none"/>
<path d="M1111.4 913.8 L1118.7 943.9" stroke="#C9C4B8" stroke-width="2.5" opacity="0.55" fill="none"/>
<path d="M1125.2 970.2 L1133.9 1005.9" stroke="#C9C4B8" stroke-width="3.0" opacity="0.55" fill="none"/>
<path d="M1141.4 1036.6 L1151.5 1078.0" stroke="#C9C4B8" stroke-width="3.7" opacity="0.55" fill="none"/>
<path d="M1160.2 1113.4 L1171.8 1160.6" stroke="#C9C4B8" stroke-width="4.4" opacity="0.55" fill="none"/>
<path d="M1181.6 1200.7 L1194.6 1253.8" stroke="#C9C4B8" stroke-width="5.3" opacity="0.55" fill="none"/>
<rect x="1197" y="905" width="7" height="14" rx="2" fill="#FF5A1F"/></g><g opacity="0.5"><path d="M100 0 L100 1276" stroke="#2B2F33" stroke-width="1"/><path d="M200 0 L200 1276" stroke="#2B2F33" stroke-width="1"/><path d="M300 0 L300 1276" stroke="#2B2F33" stroke-width="1"/><path d="M400 0 L400 1276" stroke="#2B2F33" stroke-width="1"/><path d="M500 0 L500 1276" stroke="#2B2F33" stroke-width="1"/><path d="M600 0 L600 1276" stroke="#2B2F33" stroke-width="1"/><path d="M700 0 L700 1276" stroke="#2B2F33" stroke-width="1"/><path d="M800 0 L800 1276" stroke="#2B2F33" stroke-width="1"/><path d="M900 0 L900 1276" stroke="#2B2F33" stroke-width="1"/><path d="M1000 0 L1000 1276" stroke="#2B2F33" stroke-width="1"/><path d="M1100 0 L1100 1276" stroke="#2B2F33" stroke-width="1"/><path d="M1200 0 L1200 1276" stroke="#2B2F33" stroke-width="1"/><path d="M1300 0 L1300 1276" stroke="#2B2F33" stroke-width="1"/><path d="M1400 0 L1400 1276" stroke="#2B2F33" stroke-width="1"/><path d="M1500 0 L1500 1276" stroke="#2B2F33" stroke-width="1"/><path d="M1600 0 L1600 1276" stroke="#2B2F33" stroke-width="1"/><path d="M1700 0 L1700 1276" stroke="#2B2F33" stroke-width="1"/><path d="M1800 0 L1800 1276" stroke="#2B2F33" stroke-width="1"/><path d="M1900 0 L1900 1276" stroke="#2B2F33" stroke-width="1"/><path d="M2000 0 L2000 1276" stroke="#2B2F33" stroke-width="1"/><path d="M2100 0 L2100 1276" stroke="#2B2F33" stroke-width="1"/><path d="M2200 0 L2200 1276" stroke="#2B2F33" stroke-width="1"/><path d="M2300 0 L2300 1276" stroke="#2B2F33" stroke-width="1"/><path d="M0 100 L2400 100" stroke="#2B2F33" stroke-width="1"/><path d="M0 200 L2400 200" stroke="#2B2F33" stroke-width="1"/><path d="M0 300 L2400 300" stroke="#2B2F33" stroke-width="1"/><path d="M0 400 L2400 400" stroke="#2B2F33" stroke-width="1"/><path d="M0 500 L2400 500" stroke="#2B2F33" stroke-width="1"/><path d="M0 600 L2400 600" stroke="#2B2F33" stroke-width="1"/><path d="M0 700 L2400 700" stroke="#2B2F33" stroke-width="1"/><path d="M0 800 L2400 800" stroke="#2B2F33" stroke-width="1"/><path d="M0 900 L2400 900" stroke="#2B2F33" stroke-width="1"/><path d="M0 1000 L2400 1000" stroke="#2B2F33" stroke-width="1"/><path d="M0 1100 L2400 1100" stroke="#2B2F33" stroke-width="1"/><path d="M0 1200 L2400 1200" stroke="#2B2F33" stroke-width="1"/></g><path d="M28 61 L28 28 L61 28" stroke="#C9C4B8" stroke-width="2.5" fill="none" opacity="0.8"/><path d="M2372 61 L2372 28 L2339 28" stroke="#C9C4B8" stroke-width="2.5" fill="none" opacity="0.8"/><path d="M28 1215 L28 1248 L61 1248" stroke="#C9C4B8" stroke-width="2.5" fill="none" opacity="0.8"/><path d="M2372 1215 L2372 1248 L2339 1248" stroke="#C9C4B8" stroke-width="2.5" fill="none" opacity="0.8"/><rect x="0" y="1276" width="2400" height="74" fill="#1E2124"/><path d="M0 1276.5 L2400 1276.5" stroke="#4A5054" stroke-width="1"/><rect x="0" y="1276" width="9" height="74" fill="#FF5A1F"/><text x="61" y="1323" font-family="ui-monospace, 'Roboto Mono', 'DejaVu Sans Mono', 'Courier New', monospace" font-size="29" letter-spacing="4.1" fill="#C9C4B8">A104 NORTHBOUND, FIRST LIGHT</text><text x="2339" y="1323" text-anchor="end" font-family="ui-monospace, 'Roboto Mono', 'DejaVu Sans Mono', 'Courier New', monospace" font-size="29" letter-spacing="4.1" fill="#8A8D8F">HERO-HOME / 2400x1350 / PLATE</text></svg>