<svg xmlns="http://www.w3.org/2000/svg" viewBox="0 0 2000 1000" width="2000" height="1000" preserveAspectRatio="xMidYMid slice" role="img"><defs><clipPath id="frame"><rect width="2000" height="945"/></clipPath></defs><rect width="2000" height="1000" fill="#16181A"/><g clip-path="url(#frame)"><path d="M0 0 L2000 0 L2000 491 L0 491 Z" fill="#16181A"/><path d="M0 491 L143 459 L286 436 L429 485 L571 457 L714 419 L857 423 L1000 470 L1143 412 L1286 443 L1429 444 L1571 473 L1714 428 L1857 482 L2000 491 L0 491 Z" fill="#1E2124" opacity="0.85"/>
<rect x="0" y="491" width="2000" height="454" fill="#1E2124"/>
<path d="M0 682 L2000 644" stroke="#4A5054" stroke-width="3" fill="none"/>
<circle cx="1200" cy="771" r="57" fill="none" stroke="#C9C4B8" stroke-width="4"/>
<circle cx="1460" cy="771" r="57" fill="none" stroke="#C9C4B8" stroke-width="4"/>
<path d="M1200 771 L1294 693 L1403 693 L1460 771" stroke="#C9C4B8" stroke-width="4" fill="none" stroke-linejoin="round"/>
<path d="M440 691 L500 761 L380 761 Z" fill="#FF5A1F"/></g><g opacity="0.5"><path d="M83 0 L83 945" stroke="#2B2F33" stroke-width="1"/><path d="M166 0 L166 945" stroke="#2B2F33" stroke-width="1"/><path d="M249 0 L249 945" stroke="#2B2F33" stroke-width="1"/><path d="M332 0 L332 945" stroke="#2B2F33" stroke-width="1"/><path d="M415 0 L415 945" stroke="#2B2F33" stroke-width="1"/><path d="M498 0 L498 945" stroke="#2B2F33" stroke-width="1"/><path d="M581 0 L581 945" stroke="#2B2F33" stroke-width="1"/><path d="M664 0 L664 945" stroke="#2B2F33" stroke-width="1"/><path d="M747 0 L747 945" stroke="#2B2F33" stroke-width="1"/><path d="M830 0 L830 945" stroke="#2B2F33" stroke-width="1"/><path d="M913 0 L913 945" stroke="#2B2F33" stroke-width="1"/><path d="M996 0 L996 945" stroke="#2B2F33" stroke-width="1"/><path d="M1079 0 L1079 945" stroke="#2B2F33" stroke-width="1"/><path d="M1162 0 L1162 945" stroke="#2B2F33" stroke-width="1"/><path d="M1245 0 L1245 945" stroke="#2B2F33" stroke-width="1"/><path d="M1328 0 L1328 945" stroke="#2B2F33" stroke-width="1"/><path d="M1411 0 L1411 945" stroke="#2B2F33" stroke-width="1"/><path d="M1494 0 L1494 945" stroke="#2B2F33" stroke-width="1"/><path d="M1577 0 L1577 945" stroke="#2B2F33" stroke-width="1"/><path d="M1660 0 L1660 945" stroke="#2B2F33" stroke-width="1"/><path d="M1743 0 L1743 945" stroke="#2B2F33" stroke-width="1"/><path d="M1826 0 L1826 945" stroke="#2B2F33" stroke-width="1"/><path d="M1909 0 L1909 945" stroke="#2B2F33" stroke-width="1"/><path d="M1992 0 L1992 945" stroke="#2B2F33" stroke-width="1"/><path d="M0 83 L2000 83" stroke="#2B2F33" stroke-width="1"/><path d="M0 166 L2000 166" stroke="#2B2F33" stroke-width="1"/><path d="M0 249 L2000 249" stroke="#2B2F33" stroke-width="1"/><path d="M0 332 L2000 332" stroke="#2B2F33" stroke-width="1"/><path d="M0 415 L2000 415" stroke="#2B2F33" stroke-width="1"/><path d="M0 498 L2000 498" stroke="#2B2F33" stroke-width="1"/><path d="M0 581 L2000 581" stroke="#2B2F33" stroke-width="1"/><path d="M0 664 L2000 664" stroke="#2B2F33" stroke-width="1"/><path d="M0 747 L2000 747" stroke="#2B2F33" stroke-width="1"/><path d="M0 830 L2000 830" stroke="#2B2F33" stroke-width="1"/><path d="M0 913 L2000 913" stroke="#2B2F33" stroke-width="1"/></g><path d="M24 52 L24 24 L52 24" stroke="#C9C4B8" stroke-width="2.5" fill="none" opacity="0.8"/><path d="M1976 52 L1976 24 L1948 24" stroke="#C9C4B8" stroke-width="2.5" fill="none" opacity="0.8"/><path d="M24 893 L24 921 L52 921" stroke="#C9C4B8" stroke-width="2.5" fill="none" opacity="0.8"/><path d="M1976 893 L1976 921 L1948 921" stroke="#C9C4B8" stroke-width="2.5" fill="none" opacity="0.8"/><rect x="0" y="945" width="2000" height="55" fill="#1E2124"/><path d="M0 945.5 L2000 945.5" stroke="#4A5054" stroke-width="1"/><rect x="0" y="945" width="8" height="55" fill="#FF5A1F"/><text x="52" y="980" font-family="ui-monospace, 'Roboto Mono', 'DejaVu Sans Mono', 'Courier New', monospace" font-size="22" letter-spacing="3.1" fill="#C9C4B8">SHOULDER, LAST LIGHT</text><text x="1948" y="980" text-anchor="end" font-family="ui-monospace, 'Roboto Mono', 'DejaVu Sans Mono', 'Courier New', monospace" font-size="22" letter-spacing="3.1" fill="#8A8D8F">HERO-SURVIVE / 2000x1000 / PLATE</text></svg>