<svg xmlns="http://www.w3.org/2000/svg" viewBox="0 0 1200 800" width="1200" height="800" preserveAspectRatio="xMidYMid slice" role="img"><defs><clipPath id="frame"><rect width="1200" height="756"/></clipPath></defs><rect width="1200" height="800" fill="#16181A"/><g clip-path="url(#frame)"><path d="M0 0 L1200 0 L1200 454 L0 454 Z" fill="#16181A"/><path d="M0 454 L86 414 L171 397 L257 409 L343 389 L429 420 L514 431 L600 425 L686 402 L771 428 L857 437 L943 426 L1029 386 L1114 420 L1200 434 L1200 454 L0 454 Z" fill="#1E2124" opacity="0.85"/>
<path d="M-180 756 L640 454 L688 454 L1380 756 Z" fill="#1E2124"/>
<path d="M-180 756 L640 454" stroke="#4A5054" stroke-width="2" fill="none"/>
<path d="M1380 756 L688 454" stroke="#4A5054" stroke-width="2" fill="none"/>
<path d="M664.0 453.7 L663.7 454.8" stroke="#C9C4B8" stroke-width="1.0" opacity="0.55" fill="none"/>
<path d="M663.4 456.4 L662.7 459.7" stroke="#C9C4B8" stroke-width="1.0" opacity="0.55" fill="none"/>
<path d="M661.9 463.4 L660.7 469.2" stroke="#C9C4B8" stroke-width="1.2" opacity="0.55" fill="none"/>
<path d="M659.5 475.0 L657.6 483.6" stroke="#C9C4B8" stroke-width="1.4" opacity="0.55" fill="none"/>
<path d="M655.9 491.7 L653.5 503.3" stroke="#C9C4B8" stroke-width="1.6" opacity="0.55" fill="none"/>
<path d="M651.3 513.8 L648.2 528.4" stroke="#C9C4B8" stroke-width="2.0" opacity="0.55" fill="none"/>
<path d="M645.4 541.4 L641.6 559.2" stroke="#C9C4B8" stroke-width="2.5" opacity="0.55" fill="none"/>
<path d="M638.3 574.8 L633.9 595.9" stroke="#C9C4B8" stroke-width="3.0" opacity="0.55" fill="none"/>
<path d="M630.0 614.2 L624.8 638.7" stroke="#C9C4B8" stroke-width="3.7" opacity="0.55" fill="none"/>
<path d="M620.4 659.7 L614.5 687.6" stroke="#C9C4B8" stroke-width="4.4" opacity="0.55" fill="none"/>
<path d="M609.4 711.4 L602.8 742.9" stroke="#C9C4B8" stroke-width="5.3" opacity="0.55" fill="none"/>
<rect x="687" y="531" width="7" height="14" rx="2" fill="#FF5A1F"/></g><g opacity="0.5"><path d="M50 0 L50 756" stroke="#2B2F33" stroke-width="1"/><path d="M100 0 L100 756" stroke="#2B2F33" stroke-width="1"/><path d="M150 0 L150 756" stroke="#2B2F33" stroke-width="1"/><path d="M200 0 L200 756" stroke="#2B2F33" stroke-width="1"/><path d="M250 0 L250 756" stroke="#2B2F33" stroke-width="1"/><path d="M300 0 L300 756" stroke="#2B2F33" stroke-width="1"/><path d="M350 0 L350 756" stroke="#2B2F33" stroke-width="1"/><path d="M400 0 L400 756" stroke="#2B2F33" stroke-width="1"/><path d="M450 0 L450 756" stroke="#2B2F33" stroke-width="1"/><path d="M500 0 L500 756" stroke="#2B2F33" stroke-width="1"/><path d="M550 0 L550 756" stroke="#2B2F33" stroke-width="1"/><path d="M600 0 L600 756" stroke="#2B2F33" stroke-width="1"/><path d="M650 0 L650 756" stroke="#2B2F33" stroke-width="1"/><path d="M700 0 L700 756" stroke="#2B2F33" stroke-width="1"/><path d="M750 0 L750 756" stroke="#2B2F33" stroke-width="1"/><path d="M800 0 L800 756" stroke="#2B2F33" stroke-width="1"/><path d="M850 0 L850 756" stroke="#2B2F33" stroke-width="1"/><path d="M900 0 L900 756" stroke="#2B2F33" stroke-width="1"/><path d="M950 0 L950 756" stroke="#2B2F33" stroke-width="1"/><path d="M1000 0 L1000 756" stroke="#2B2F33" stroke-width="1"/><path d="M1050 0 L1050 756" stroke="#2B2F33" stroke-width="1"/><path d="M1100 0 L1100 756" stroke="#2B2F33" stroke-width="1"/><path d="M1150 0 L1150 756" stroke="#2B2F33" stroke-width="1"/><path d="M0 50 L1200 50" stroke="#2B2F33" stroke-width="1"/><path d="M0 100 L1200 100" stroke="#2B2F33" stroke-width="1"/><path d="M0 150 L1200 150" stroke="#2B2F33" stroke-width="1"/><path d="M0 200 L1200 200" stroke="#2B2F33" stroke-width="1"/><path d="M0 250 L1200 250" stroke="#2B2F33" stroke-width="1"/><path d="M0 300 L1200 300" stroke="#2B2F33" stroke-width="1"/><path d="M0 350 L1200 350" stroke="#2B2F33" stroke-width="1"/><path d="M0 400 L1200 400" stroke="#2B2F33" stroke-width="1"/><path d="M0 450 L1200 450" stroke="#2B2F33" stroke-width="1"/><path d="M0 500 L1200 500" stroke="#2B2F33" stroke-width="1"/><path d="M0 550 L1200 550" stroke="#2B2F33" stroke-width="1"/><path d="M0 600 L1200 600" stroke="#2B2F33" stroke-width="1"/><path d="M0 650 L1200 650" stroke="#2B2F33" stroke-width="1"/><path d="M0 700 L1200 700" stroke="#2B2F33" stroke-width="1"/><path d="M0 750 L1200 750" stroke="#2B2F33" stroke-width="1"/></g><path d="M14 30 L14 14 L30 14" stroke="#C9C4B8" stroke-width="2.5" fill="none" opacity="0.8"/><path d="M1186 30 L1186 14 L1170 14" stroke="#C9C4B8" stroke-width="2.5" fill="none" opacity="0.8"/><path d="M14 726 L14 742 L30 742" stroke="#C9C4B8" stroke-width="2.5" fill="none" opacity="0.8"/><path d="M1186 726 L1186 742 L1170 742" stroke="#C9C4B8" stroke-width="2.5" fill="none" opacity="0.8"/><rect x="0" y="756" width="1200" height="44" fill="#1E2124"/><path d="M0 756.5 L1200 756.5" stroke="#4A5054" stroke-width="1"/><rect x="0" y="756" width="4" height="44" fill="#FF5A1F"/><text x="30" y="784" font-family="ui-monospace, 'Roboto Mono', 'DejaVu Sans Mono', 'Courier New', monospace" font-size="17" letter-spacing="2.4" fill="#C9C4B8">TWO LANE, WET</text><text x="1170" y="784" text-anchor="end" font-family="ui-monospace, 'Roboto Mono', 'DejaVu Sans Mono', 'Courier New', monospace" font-size="17" letter-spacing="2.4" fill="#8A8D8F">INDEX-RIDE / 1200x800 / PLATE</text></svg>